<svg xmlns="http://www.w3.org/2000/svg" fill="none" aria-labelledby="aayc4yu9zvby22otugj1ltxue7sgw6x5" class="octicon" viewBox="0 0 16 16">
  <g clip-path="url(#clip0_202_91845)">
    <path fill="currentColor" d="M14.546 0H1.455C.65 0 0 .65 0 1.455v13.09C0 15.35.65 16 1.455 16h13.09C15.35 16 16 15.35 16 14.546V1.455C16 .65 15.35 0 14.546 0Zm-9.49 13.09H2.912V6.189h2.145v6.903ZM3.963 5.2a1.25 1.25 0 1 1 0-2.501 1.25 1.25 0 0 1 0 2.502Zm9.13 7.89H10.95V9.735c0-.8-.015-1.83-1.115-1.83-1.116 0-1.288.871-1.288 1.772v3.415H6.403V6.188H8.46v.943h.03c.286-.543.985-1.115 2.029-1.115 2.172 0 2.574 1.43 2.574 3.289v3.786Z"/>
  </g>
</svg>
